<svg width="105" height="15" viewBox="0 0 105 15" fill="none" xmlns="http://www.w3.org/2000/svg">
<path d="M2.65625 14H0.107422V0.5H2.65625V14ZM4.36133 9.15723C4.36133 8.21387 4.54297 7.37305 4.90625 6.63477C5.26953 5.89648 5.79102 5.3252 6.4707 4.9209C7.15625 4.5166 7.9502 4.31445 8.85254 4.31445C10.1357 4.31445 11.1816 4.70703 11.9902 5.49219C12.8047 6.27734 13.2588 7.34375 13.3525 8.69141L13.3701 9.3418C13.3701 10.8008 12.9629 11.9727 12.1484 12.8574C11.334 13.7363 10.2412 14.1758 8.87012 14.1758C7.49902 14.1758 6.40332 13.7363 5.58301 12.8574C4.76855 11.9785 4.36133 10.7832 4.36133 9.27148V9.15723ZM6.90137 9.3418C6.90137 10.2441 7.07129 10.9355 7.41113 11.416C7.75098 11.8906 8.2373 12.1279 8.87012 12.1279C9.48535 12.1279 9.96582 11.8936 10.3115 11.4248C10.6572 10.9502 10.8301 10.1943 10.8301 9.15723C10.8301 8.27246 10.6572 7.58691 10.3115 7.10059C9.96582 6.61426 9.47949 6.37109 8.85254 6.37109C8.23145 6.37109 7.75098 6.61426 7.41113 7.10059C7.07129 7.58105 6.90137 8.32812 6.90137 9.3418ZM14.5391 9.15723C14.5391 8.21387 14.7207 7.37305 15.084 6.63477C15.4473 5.89648 15.9688 5.3252 16.6484 4.9209C17.334 4.5166 18.1279 4.31445 19.0303 4.31445C20.3135 4.31445 21.3594 4.70703 22.168 5.49219C22.9824 6.27734 23.4365 7.34375 23.5303 8.69141L23.5479 9.3418C23.5479 10.8008 23.1406 11.9727 22.3262 12.8574C21.5117 13.7363 20.4189 14.1758 19.0479 14.1758C17.6768 14.1758 16.5811 13.7363 15.7607 12.8574C14.9463 11.9785 14.5391 10.7832 14.5391 9.27148V9.15723ZM17.0791 9.3418C17.0791 10.2441 17.249 10.9355 17.5889 11.416C17.9287 11.8906 18.415 12.1279 19.0479 12.1279C19.6631 12.1279 20.1436 11.8936 20.4893 11.4248C20.835 10.9502 21.0078 10.1943 21.0078 9.15723C21.0078 8.27246 20.835 7.58691 20.4893 7.10059C20.1436 6.61426 19.6572 6.37109 19.0303 6.37109C18.4092 6.37109 17.9287 6.61426 17.5889 7.10059C17.249 7.58105 17.0791 8.32812 17.0791 9.3418ZM24.7168 9.1748C24.7168 7.69238 25.0479 6.51172 25.71 5.63281C26.3779 4.75391 27.2891 4.31445 28.4434 4.31445C29.3691 4.31445 30.1338 4.66016 30.7373 5.35156V0.5H33.2861V14H30.9922L30.8691 12.9893C30.2363 13.7803 29.4219 14.1758 28.4258 14.1758C27.3066 14.1758 26.4072 13.7363 25.7275 12.8574C25.0537 11.9727 24.7168 10.7451 24.7168 9.1748ZM27.2568 9.35938C27.2568 10.25 27.4121 10.9326 27.7227 11.4072C28.0332 11.8818 28.4844 12.1191 29.0762 12.1191C29.8613 12.1191 30.415 11.7881 30.7373 11.126V7.37305C30.4209 6.71094 29.873 6.37988 29.0938 6.37988C27.8691 6.37988 27.2568 7.37305 27.2568 9.35938Z" fill="#D71F24"/>
<path d="M43.3496 1.20312L46.6367 10.4844L49.9062 1.20312H53.3691V14H50.7236V10.502L50.9873 4.46387L47.5332 14H45.7227L42.2773 4.47266L42.541 10.502V14H39.9043V1.20312H43.3496ZM66.1836 7.8916C66.1836 9.15137 65.9609 10.2559 65.5156 11.2051C65.0703 12.1543 64.4316 12.8867 63.5996 13.4023C62.7734 13.918 61.8242 14.1758 60.752 14.1758C59.6914 14.1758 58.7451 13.9209 57.9131 13.4111C57.0811 12.9014 56.4365 12.1748 55.9795 11.2314C55.5225 10.2822 55.291 9.19238 55.2852 7.96191V7.3291C55.2852 6.06934 55.5107 4.96191 55.9619 4.00684C56.4189 3.0459 57.0605 2.31055 57.8867 1.80078C58.7188 1.28516 59.668 1.02734 60.7344 1.02734C61.8008 1.02734 62.7471 1.28516 63.5732 1.80078C64.4053 2.31055 65.0469 3.0459 65.498 4.00684C65.9551 4.96191 66.1836 6.06641 66.1836 7.32031V7.8916ZM63.5117 7.31152C63.5117 5.96973 63.2715 4.9502 62.791 4.25293C62.3105 3.55566 61.625 3.20703 60.7344 3.20703C59.8496 3.20703 59.167 3.55273 58.6865 4.24414C58.2061 4.92969 57.9629 5.9375 57.957 7.26758V7.8916C57.957 9.19824 58.1973 10.2119 58.6777 10.9326C59.1582 11.6533 59.8496 12.0137 60.752 12.0137C61.6367 12.0137 62.3164 11.668 62.791 10.9766C63.2656 10.2793 63.5059 9.26562 63.5117 7.93555V7.31152ZM72.6348 10.8271L75.5352 1.20312H78.4707L74.0146 14H71.2637L66.8252 1.20312H69.752L72.6348 10.8271ZM82.4873 14H79.8506V1.20312H82.4873V14ZM92.6387 8.4541H87.5762V11.8818H93.5176V14H84.9395V1.20312H93.5V3.33887H87.5762V6.38867H92.6387V8.4541ZM101.7 10.6426C101.7 10.1445 101.524 9.76367 101.173 9.5C100.821 9.23047 100.188 8.94922 99.2744 8.65625C98.3604 8.35742 97.6367 8.06445 97.1035 7.77734C95.6504 6.99219 94.9238 5.93457 94.9238 4.60449C94.9238 3.91309 95.1172 3.29785 95.5039 2.75879C95.8965 2.21387 96.4561 1.78906 97.1826 1.48438C97.915 1.17969 98.7354 1.02734 99.6436 1.02734C100.558 1.02734 101.372 1.19434 102.087 1.52832C102.802 1.85645 103.355 2.32227 103.748 2.92578C104.146 3.5293 104.346 4.21484 104.346 4.98242H101.709C101.709 4.39648 101.524 3.94238 101.155 3.62012C100.786 3.29199 100.268 3.12793 99.5996 3.12793C98.9551 3.12793 98.4541 3.26563 98.0967 3.54102C97.7393 3.81055 97.5605 4.16797 97.5605 4.61328C97.5605 5.0293 97.7686 5.37793 98.1846 5.65918C98.6064 5.94043 99.2246 6.2041 100.039 6.4502C101.539 6.90137 102.632 7.46094 103.317 8.12891C104.003 8.79688 104.346 9.62891 104.346 10.625C104.346 11.7324 103.927 12.6025 103.089 13.2354C102.251 13.8623 101.123 14.1758 99.7051 14.1758C98.7207 14.1758 97.8242 13.9971 97.0156 13.6396C96.207 13.2764 95.5889 12.7812 95.1611 12.1543C94.7393 11.5273 94.5283 10.8008 94.5283 9.97461H97.1738C97.1738 11.3867 98.0176 12.0928 99.7051 12.0928C100.332 12.0928 100.821 11.9668 101.173 11.7148C101.524 11.457 101.7 11.0996 101.7 10.6426Z" fill="#3A3A3A"/>
</svg>
