<svg width="94" height="15" viewBox="0 0 94 15" fill="none" xmlns="http://www.w3.org/2000/svg">
<path d="M2.65625 14H0.107422V0.5H2.65625V14ZM4.36133 9.15723C4.36133 8.21387 4.54297 7.37305 4.90625 6.63477C5.26953 5.89648 5.79102 5.3252 6.4707 4.9209C7.15625 4.5166 7.9502 4.31445 8.85254 4.31445C10.1357 4.31445 11.1816 4.70703 11.9902 5.49219C12.8047 6.27734 13.2588 7.34375 13.3525 8.69141L13.3701 9.3418C13.3701 10.8008 12.9629 11.9727 12.1484 12.8574C11.334 13.7363 10.2412 14.1758 8.87012 14.1758C7.49902 14.1758 6.40332 13.7363 5.58301 12.8574C4.76855 11.9785 4.36133 10.7832 4.36133 9.27148V9.15723ZM6.90137 9.3418C6.90137 10.2441 7.07129 10.9355 7.41113 11.416C7.75098 11.8906 8.2373 12.1279 8.87012 12.1279C9.48535 12.1279 9.96582 11.8936 10.3115 11.4248C10.6572 10.9502 10.8301 10.1943 10.8301 9.15723C10.8301 8.27246 10.6572 7.58691 10.3115 7.10059C9.96582 6.61426 9.47949 6.37109 8.85254 6.37109C8.23145 6.37109 7.75098 6.61426 7.41113 7.10059C7.07129 7.58105 6.90137 8.32812 6.90137 9.3418ZM14.5391 9.15723C14.5391 8.21387 14.7207 7.37305 15.084 6.63477C15.4473 5.89648 15.9688 5.3252 16.6484 4.9209C17.334 4.5166 18.1279 4.31445 19.0303 4.31445C20.3135 4.31445 21.3594 4.70703 22.168 5.49219C22.9824 6.27734 23.4365 7.34375 23.5303 8.69141L23.5479 9.3418C23.5479 10.8008 23.1406 11.9727 22.3262 12.8574C21.5117 13.7363 20.4189 14.1758 19.0479 14.1758C17.6768 14.1758 16.5811 13.7363 15.7607 12.8574C14.9463 11.9785 14.5391 10.7832 14.5391 9.27148V9.15723ZM17.0791 9.3418C17.0791 10.2441 17.249 10.9355 17.5889 11.416C17.9287 11.8906 18.415 12.1279 19.0479 12.1279C19.6631 12.1279 20.1436 11.8936 20.4893 11.4248C20.835 10.9502 21.0078 10.1943 21.0078 9.15723C21.0078 8.27246 20.835 7.58691 20.4893 7.10059C20.1436 6.61426 19.6572 6.37109 19.0303 6.37109C18.4092 6.37109 17.9287 6.61426 17.5889 7.10059C17.249 7.58105 17.0791 8.32812 17.0791 9.3418ZM24.7168 9.1748C24.7168 7.69238 25.0479 6.51172 25.71 5.63281C26.3779 4.75391 27.2891 4.31445 28.4434 4.31445C29.3691 4.31445 30.1338 4.66016 30.7373 5.35156V0.5H33.2861V14H30.9922L30.8691 12.9893C30.2363 13.7803 29.4219 14.1758 28.4258 14.1758C27.3066 14.1758 26.4072 13.7363 25.7275 12.8574C25.0537 11.9727 24.7168 10.7451 24.7168 9.1748ZM27.2568 9.35938C27.2568 10.25 27.4121 10.9326 27.7227 11.4072C28.0332 11.8818 28.4844 12.1191 29.0762 12.1191C29.8613 12.1191 30.415 11.7881 30.7373 11.126V7.37305C30.4209 6.71094 29.873 6.37988 29.0938 6.37988C27.8691 6.37988 27.2568 7.37305 27.2568 9.35938Z" fill="#D71F24"/>
<path d="M43.3496 1.20312L46.6367 10.4844L49.9062 1.20312H53.3691V14H50.7236V10.502L50.9873 4.46387L47.5332 14H45.7227L42.2773 4.47266L42.541 10.502V14H39.9043V1.20312H43.3496ZM65.3574 1.20312V9.63184C65.3574 11.0322 64.918 12.1396 64.0391 12.9541C63.166 13.7686 61.9707 14.1758 60.4531 14.1758C58.959 14.1758 57.7725 13.7803 56.8936 12.9893C56.0146 12.1982 55.5664 11.1113 55.5488 9.72852V1.20312H58.1855V9.64941C58.1855 10.4873 58.3848 11.0996 58.7832 11.4863C59.1875 11.8672 59.7441 12.0576 60.4531 12.0576C61.9355 12.0576 62.6885 11.2783 62.7119 9.71973V1.20312H65.3574ZM74.1553 10.6426C74.1553 10.1445 73.9795 9.76367 73.6279 9.5C73.2764 9.23047 72.6436 8.94922 71.7295 8.65625C70.8154 8.35742 70.0918 8.06445 69.5586 7.77734C68.1055 6.99219 67.3789 5.93457 67.3789 4.60449C67.3789 3.91309 67.5723 3.29785 67.959 2.75879C68.3516 2.21387 68.9111 1.78906 69.6377 1.48438C70.3701 1.17969 71.1904 1.02734 72.0986 1.02734C73.0127 1.02734 73.8271 1.19434 74.542 1.52832C75.2568 1.85645 75.8105 2.32227 76.2031 2.92578C76.6016 3.5293 76.8008 4.21484 76.8008 4.98242H74.1641C74.1641 4.39648 73.9795 3.94238 73.6104 3.62012C73.2412 3.29199 72.7227 3.12793 72.0547 3.12793C71.4102 3.12793 70.9092 3.26563 70.5518 3.54102C70.1943 3.81055 70.0156 4.16797 70.0156 4.61328C70.0156 5.0293 70.2236 5.37793 70.6396 5.65918C71.0615 5.94043 71.6797 6.2041 72.4941 6.4502C73.9941 6.90137 75.0869 7.46094 75.7725 8.12891C76.458 8.79688 76.8008 9.62891 76.8008 10.625C76.8008 11.7324 76.3818 12.6025 75.5439 13.2354C74.7061 13.8623 73.5781 14.1758 72.1602 14.1758C71.1758 14.1758 70.2793 13.9971 69.4707 13.6396C68.6621 13.2764 68.0439 12.7812 67.6162 12.1543C67.1943 11.5273 66.9834 10.8008 66.9834 9.97461H69.6289C69.6289 11.3867 70.4727 12.0928 72.1602 12.0928C72.7871 12.0928 73.2764 11.9668 73.6279 11.7148C73.9795 11.457 74.1553 11.0996 74.1553 10.6426ZM81.3975 14H78.7607V1.20312H81.3975V14ZM93.8955 9.7373C93.7959 11.1143 93.2861 12.1982 92.3662 12.9893C91.4521 13.7803 90.2451 14.1758 88.7451 14.1758C87.1045 14.1758 85.8125 13.625 84.8691 12.5234C83.9316 11.416 83.4629 9.89844 83.4629 7.9707V7.18848C83.4629 5.95801 83.6797 4.87402 84.1133 3.93652C84.5469 2.99902 85.165 2.28125 85.9678 1.7832C86.7764 1.2793 87.7139 1.02734 88.7803 1.02734C90.2568 1.02734 91.4463 1.42285 92.3486 2.21387C93.251 3.00488 93.7725 4.11523 93.9131 5.54492H91.2764C91.2119 4.71875 90.9805 4.12109 90.582 3.75195C90.1895 3.37695 89.5889 3.18945 88.7803 3.18945C87.9014 3.18945 87.2422 3.50586 86.8027 4.13867C86.3691 4.76562 86.1465 5.74121 86.1348 7.06543V8.03223C86.1348 9.41504 86.3428 10.4258 86.7588 11.0645C87.1807 11.7031 87.8428 12.0225 88.7451 12.0225C89.5596 12.0225 90.166 11.8379 90.5645 11.4688C90.9688 11.0938 91.2002 10.5166 91.2588 9.7373H93.8955Z" fill="#3A3A3A"/>
</svg>
